<?xml version="1.0" encoding="UTF-8" standalone="no"?>
<!-- Created with matplotlib (https://matplotlib.org/) -->

<svg
   xmlns:dc="http://purl.org/dc/elements/1.1/"
   xmlns:cc="http://creativecommons.org/ns#"
   xmlns:rdf="http://www.w3.org/1999/02/22-rdf-syntax-ns#"
   xmlns:svg="http://www.w3.org/2000/svg"
   xmlns="http://www.w3.org/2000/svg"
   xmlns:xlink="http://www.w3.org/1999/xlink"
   xmlns:sodipodi="http://sodipodi.sourceforge.net/DTD/sodipodi-0.dtd"
   xmlns:inkscape="http://www.inkscape.org/namespaces/inkscape"
   height="288pt"
   version="1.1"
   viewBox="0 0 432 288"
   width="432pt"
   id="svg436"
   sodipodi:docname="Pt5_P.svg"
   inkscape:version="0.92.3 (2405546, 2018-03-11)">
  <metadata
     id="metadata440">
    <rdf:RDF>
      <cc:Work
         rdf:about="">
        <dc:format>image/svg+xml</dc:format>
        <dc:type
           rdf:resource="http://purl.org/dc/dcmitype/StillImage" />
      </cc:Work>
    </rdf:RDF>
  </metadata>
  <sodipodi:namedview
     pagecolor="#ffffff"
     bordercolor="#666666"
     borderopacity="1"
     objecttolerance="10"
     gridtolerance="10"
     guidetolerance="10"
     inkscape:pageopacity="0"
     inkscape:pageshadow="2"
     inkscape:window-width="1920"
     inkscape:window-height="1013"
     id="namedview438"
     showgrid="false"
     inkscape:zoom="0.98958333"
     inkscape:cx="434.90873"
     inkscape:cy="119.02155"
     inkscape:window-x="0"
     inkscape:window-y="0"
     inkscape:window-maximized="1"
     inkscape:current-layer="patch_1" />
  <defs
     id="defs4">
    <style
       type="text/css"
       id="style2">
*{stroke-linecap:butt;stroke-linejoin:round;}
  </style>
  </defs>
  <g
     id="figure_1">
    <g
       id="patch_1" />
    <g
       id="axes_1">
      <g
         id="patch_2">
        <path
           d="M 50.6 244.3975  L 408.555 244.3975  L 408.555 10.8  L 50.6 10.8  z "
           style="fill:#ffffff;"
           id="path9" />
      </g>
      <g
         id="matplotlib.axis_1">
        <g
           id="xtick_1">
          <g
             id="line2d_1">
            <defs
               id="defs13">
              <path
                 d="M 0 0  L 0 3.5  "
                 id="m6d5ce75949"
                 style="stroke:#000000;stroke-width:0.8;" />
            </defs>
            <g
               id="g17">
              <use
                 style="stroke:#000000;stroke-width:0.8;"
                 x="50.6"
                 xlink:href="#m6d5ce75949"
                 y="244.3975"
                 id="use15" />
            </g>
          </g>
          <g
             id="text_1">
            <!-- 0 -->
            <defs
               id="defs21">
              <path
                 d="M 31.78125 66.40625  Q 24.171875 66.40625 20.328125 58.90625  Q 16.5 51.421875 16.5 36.375  Q 16.5 21.390625 20.328125 13.890625  Q 24.171875 6.390625 31.78125 6.390625  Q 39.453125 6.390625 43.28125 13.890625  Q 47.125 21.390625 47.125 36.375  Q 47.125 51.421875 43.28125 58.90625  Q 39.453125 66.40625 31.78125 66.40625  z M 31.78125 74.21875  Q 44.046875 74.21875 50.515625 64.515625  Q 56.984375 54.828125 56.984375 36.375  Q 56.984375 17.96875 50.515625 8.265625  Q 44.046875 -1.421875 31.78125 -1.421875  Q 19.53125 -1.421875 13.0625 8.265625  Q 6.59375 17.96875 6.59375 36.375  Q 6.59375 54.828125 13.0625 64.515625  Q 19.53125 74.21875 31.78125 74.21875  z "
                 id="DejaVuSans-48" />
            </defs>
            <g
               transform="translate(47.41875 258.995938)scale(0.1 -0.1)"
               id="g25">
              <use
                 xlink:href="#DejaVuSans-48"
                 id="use23" />
            </g>
          </g>
        </g>
        <g
           id="xtick_2">
          <g
             id="line2d_2">
            <g
               id="g31">
              <use
                 style="stroke:#000000;stroke-width:0.8;"
                 x="122.191"
                 xlink:href="#m6d5ce75949"
                 y="244.3975"
                 id="use29" />
            </g>
          </g>
          <g
             id="text_2">
            <!-- 200 -->
            <defs
               id="defs35">
              <path
                 d="M 19.1875 8.296875  L 53.609375 8.296875  L 53.609375 0  L 7.328125 0  L 7.328125 8.296875  Q 12.9375 14.109375 22.625 23.890625  Q 32.328125 33.6875 34.8125 36.53125  Q 39.546875 41.84375 41.421875 45.53125  Q 43.3125 49.21875 43.3125 52.78125  Q 43.3125 58.59375 39.234375 62.25  Q 35.15625 65.921875 28.609375 65.921875  Q 23.96875 65.921875 18.8125 64.3125  Q 13.671875 62.703125 7.8125 59.421875  L 7.8125 69.390625  Q 13.765625 71.78125 18.9375 73  Q 24.125 74.21875 28.421875 74.21875  Q 39.75 74.21875 46.484375 68.546875  Q 53.21875 62.890625 53.21875 53.421875  Q 53.21875 48.921875 51.53125 44.890625  Q 49.859375 40.875 45.40625 35.40625  Q 44.1875 33.984375 37.640625 27.21875  Q 31.109375 20.453125 19.1875 8.296875  z "
                 id="DejaVuSans-50" />
            </defs>
            <g
               transform="translate(112.64725 258.995938)scale(0.1 -0.1)"
               id="g43">
              <use
                 xlink:href="#DejaVuSans-50"
                 id="use37" />
              <use
                 x="63.623047"
                 xlink:href="#DejaVuSans-48"
                 id="use39" />
              <use
                 x="127.246094"
                 xlink:href="#DejaVuSans-48"
                 id="use41" />
            </g>
          </g>
        </g>
        <g
           id="xtick_3">
          <g
             id="line2d_3">
            <g
               id="g49">
              <use
                 style="stroke:#000000;stroke-width:0.8;"
                 x="193.782"
                 xlink:href="#m6d5ce75949"
                 y="244.3975"
                 id="use47" />
            </g>
          </g>
          <g
             id="text_3">
            <!-- 400 -->
            <defs
               id="defs53">
              <path
                 d="M 37.796875 64.3125  L 12.890625 25.390625  L 37.796875 25.390625  z M 35.203125 72.90625  L 47.609375 72.90625  L 47.609375 25.390625  L 58.015625 25.390625  L 58.015625 17.1875  L 47.609375 17.1875  L 47.609375 0  L 37.796875 0  L 37.796875 17.1875  L 4.890625 17.1875  L 4.890625 26.703125  z "
                 id="DejaVuSans-52" />
            </defs>
            <g
               transform="translate(184.23825 258.995938)scale(0.1 -0.1)"
               id="g61">
              <use
                 xlink:href="#DejaVuSans-52"
                 id="use55" />
              <use
                 x="63.623047"
                 xlink:href="#DejaVuSans-48"
                 id="use57" />
              <use
                 x="127.246094"
                 xlink:href="#DejaVuSans-48"
                 id="use59" />
            </g>
          </g>
        </g>
        <g
           id="xtick_4">
          <g
             id="line2d_4">
            <g
               id="g67">
              <use
                 style="stroke:#000000;stroke-width:0.8;"
                 x="265.373"
                 xlink:href="#m6d5ce75949"
                 y="244.3975"
                 id="use65" />
            </g>
          </g>
          <g
             id="text_4">
            <!-- 600 -->
            <defs
               id="defs71">
              <path
                 d="M 33.015625 40.375  Q 26.375 40.375 22.484375 35.828125  Q 18.609375 31.296875 18.609375 23.390625  Q 18.609375 15.53125 22.484375 10.953125  Q 26.375 6.390625 33.015625 6.390625  Q 39.65625 6.390625 43.53125 10.953125  Q 47.40625 15.53125 47.40625 23.390625  Q 47.40625 31.296875 43.53125 35.828125  Q 39.65625 40.375 33.015625 40.375  z M 52.59375 71.296875  L 52.59375 62.3125  Q 48.875 64.0625 45.09375 64.984375  Q 41.3125 65.921875 37.59375 65.921875  Q 27.828125 65.921875 22.671875 59.328125  Q 17.53125 52.734375 16.796875 39.40625  Q 19.671875 43.65625 24.015625 45.921875  Q 28.375 48.1875 33.59375 48.1875  Q 44.578125 48.1875 50.953125 41.515625  Q 57.328125 34.859375 57.328125 23.390625  Q 57.328125 12.15625 50.6875 5.359375  Q 44.046875 -1.421875 33.015625 -1.421875  Q 20.359375 -1.421875 13.671875 8.265625  Q 6.984375 17.96875 6.984375 36.375  Q 6.984375 53.65625 15.1875 63.9375  Q 23.390625 74.21875 37.203125 74.21875  Q 40.921875 74.21875 44.703125 73.484375  Q 48.484375 72.75 52.59375 71.296875  z "
                 id="DejaVuSans-54" />
            </defs>
            <g
               transform="translate(255.82925 258.995938)scale(0.1 -0.1)"
               id="g79">
              <use
                 xlink:href="#DejaVuSans-54"
                 id="use73" />
              <use
                 x="63.623047"
                 xlink:href="#DejaVuSans-48"
                 id="use75" />
              <use
                 x="127.246094"
                 xlink:href="#DejaVuSans-48"
                 id="use77" />
            </g>
          </g>
        </g>
        <g
           id="xtick_5">
          <g
             id="line2d_5">
            <g
               id="g85">
              <use
                 style="stroke:#000000;stroke-width:0.8;"
                 x="336.964"
                 xlink:href="#m6d5ce75949"
                 y="244.3975"
                 id="use83" />
            </g>
          </g>
          <g
             id="text_5">
            <!-- 800 -->
            <defs
               id="defs89">
              <path
                 d="M 31.78125 34.625  Q 24.75 34.625 20.71875 30.859375  Q 16.703125 27.09375 16.703125 20.515625  Q 16.703125 13.921875 20.71875 10.15625  Q 24.75 6.390625 31.78125 6.390625  Q 38.8125 6.390625 42.859375 10.171875  Q 46.921875 13.96875 46.921875 20.515625  Q 46.921875 27.09375 42.890625 30.859375  Q 38.875 34.625 31.78125 34.625  z M 21.921875 38.8125  Q 15.578125 40.375 12.03125 44.71875  Q 8.5 49.078125 8.5 55.328125  Q 8.5 64.0625 14.71875 69.140625  Q 20.953125 74.21875 31.78125 74.21875  Q 42.671875 74.21875 48.875 69.140625  Q 55.078125 64.0625 55.078125 55.328125  Q 55.078125 49.078125 51.53125 44.71875  Q 48 40.375 41.703125 38.8125  Q 48.828125 37.15625 52.796875 32.3125  Q 56.78125 27.484375 56.78125 20.515625  Q 56.78125 9.90625 50.3125 4.234375  Q 43.84375 -1.421875 31.78125 -1.421875  Q 19.734375 -1.421875 13.25 4.234375  Q 6.78125 9.90625 6.78125 20.515625  Q 6.78125 27.484375 10.78125 32.3125  Q 14.796875 37.15625 21.921875 38.8125  z M 18.3125 54.390625  Q 18.3125 48.734375 21.84375 45.5625  Q 25.390625 42.390625 31.78125 42.390625  Q 38.140625 42.390625 41.71875 45.5625  Q 45.3125 48.734375 45.3125 54.390625  Q 45.3125 60.0625 41.71875 63.234375  Q 38.140625 66.40625 31.78125 66.40625  Q 25.390625 66.40625 21.84375 63.234375  Q 18.3125 60.0625 18.3125 54.390625  z "
                 id="DejaVuSans-56" />
            </defs>
            <g
               transform="translate(327.42025 258.995938)scale(0.1 -0.1)"
               id="g97">
              <use
                 xlink:href="#DejaVuSans-56"
                 id="use91" />
              <use
                 x="63.623047"
                 xlink:href="#DejaVuSans-48"
                 id="use93" />
              <use
                 x="127.246094"
                 xlink:href="#DejaVuSans-48"
                 id="use95" />
            </g>
          </g>
        </g>
        <g
           id="xtick_6">
          <g
             id="line2d_6">
            <g
               id="g103">
              <use
                 style="stroke:#000000;stroke-width:0.8;"
                 x="408.555"
                 xlink:href="#m6d5ce75949"
                 y="244.3975"
                 id="use101" />
            </g>
          </g>
          <g
             id="text_6">
            <!-- 1000 -->
            <defs
               id="defs107">
              <path
                 d="M 12.40625 8.296875  L 28.515625 8.296875  L 28.515625 63.921875  L 10.984375 60.40625  L 10.984375 69.390625  L 28.421875 72.90625  L 38.28125 72.90625  L 38.28125 8.296875  L 54.390625 8.296875  L 54.390625 0  L 12.40625 0  z "
                 id="DejaVuSans-49" />
            </defs>
            <g
               transform="translate(395.83 258.995938)scale(0.1 -0.1)"
               id="g117">
              <use
                 xlink:href="#DejaVuSans-49"
                 id="use109" />
              <use
                 x="63.623047"
                 xlink:href="#DejaVuSans-48"
                 id="use111" />
              <use
                 x="127.246094"
                 xlink:href="#DejaVuSans-48"
                 id="use113" />
              <use
                 x="190.869141"
                 xlink:href="#DejaVuSans-48"
                 id="use115" />
            </g>
          </g>
        </g>
        <g
           id="text_7">
          <!-- $T$ [K] -->
          <defs
             id="defs126">
            <path
               d="M 5.90625 72.90625  L 67.578125 72.90625  L 66.015625 64.59375  L 39.984375 64.59375  L 27.484375 0  L 17.578125 0  L 30.078125 64.59375  L 4.296875 64.59375  z "
               id="DejaVuSans-Oblique-84" />
            <path
               id="DejaVuSans-32" />
            <path
               d="M 8.59375 75.984375  L 29.296875 75.984375  L 29.296875 69  L 17.578125 69  L 17.578125 -6.203125  L 29.296875 -6.203125  L 29.296875 -13.1875  L 8.59375 -13.1875  z "
               id="DejaVuSans-91" />
            <path
               d="M 9.8125 72.90625  L 19.671875 72.90625  L 19.671875 42.09375  L 52.390625 72.90625  L 65.09375 72.90625  L 28.90625 38.921875  L 67.671875 0  L 54.6875 0  L 19.671875 35.109375  L 19.671875 0  L 9.8125 0  z "
               id="DejaVuSans-75" />
            <path
               d="M 30.421875 75.984375  L 30.421875 -13.1875  L 9.71875 -13.1875  L 9.71875 -6.203125  L 21.390625 -6.203125  L 21.390625 69  L 9.71875 69  L 9.71875 75.984375  z "
               id="DejaVuSans-93" />
          </defs>
          <g
             transform="translate(217.7275 272.674063)scale(0.1 -0.1)"
             id="g138">
            <use
               transform="translate(0 0.015625)"
               xlink:href="#DejaVuSans-Oblique-84"
               id="use128" />
            <use
               transform="translate(61.083984 0.015625)"
               xlink:href="#DejaVuSans-32"
               id="use130" />
            <use
               transform="translate(92.871094 0.015625)"
               xlink:href="#DejaVuSans-91"
               id="use132" />
            <use
               transform="translate(131.884766 0.015625)"
               xlink:href="#DejaVuSans-75"
               id="use134" />
            <use
               transform="translate(197.460938 0.015625)"
               xlink:href="#DejaVuSans-93"
               id="use136" />
          </g>
        </g>
      </g>
      <g
         id="matplotlib.axis_2">
        <g
           id="ytick_1">
          <g
             id="line2d_7">
            <defs
               id="defs143">
              <path
                 d="M 0 0  L -3.5 0  "
                 id="md2fa5c2357"
                 style="stroke:#000000;stroke-width:0.8;" />
            </defs>
            <g
               id="g147">
              <use
                 style="stroke:#000000;stroke-width:0.8;"
                 x="50.6"
                 xlink:href="#md2fa5c2357"
                 y="233.779432"
                 id="use145" />
            </g>
          </g>
          <g
             id="text_8">
            <!-- 0.0 -->
            <defs
               id="defs151">
              <path
                 d="M 10.6875 12.40625  L 21 12.40625  L 21 0  L 10.6875 0  z "
                 id="DejaVuSans-46" />
            </defs>
            <g
               transform="translate(27.696875 237.578651)scale(0.1 -0.1)"
               id="g159">
              <use
                 xlink:href="#DejaVuSans-48"
                 id="use153" />
              <use
                 x="63.623047"
                 xlink:href="#DejaVuSans-46"
                 id="use155" />
              <use
                 x="95.410156"
                 xlink:href="#DejaVuSans-48"
                 id="use157" />
            </g>
          </g>
        </g>
        <g
           id="ytick_2">
          <g
             id="line2d_8">
            <g
               id="g165">
              <use
                 style="stroke:#000000;stroke-width:0.8;"
                 x="50.6"
                 xlink:href="#md2fa5c2357"
                 y="191.307159"
                 id="use163" />
            </g>
          </g>
          <g
             id="text_9">
            <!-- 0.2 -->
            <g
               transform="translate(27.696875 195.106378)scale(0.1 -0.1)"
               id="g174">
              <use
                 xlink:href="#DejaVuSans-48"
                 id="use168" />
              <use
                 x="63.623047"
                 xlink:href="#DejaVuSans-46"
                 id="use170" />
              <use
                 x="95.410156"
                 xlink:href="#DejaVuSans-50"
                 id="use172" />
            </g>
          </g>
        </g>
        <g
           id="ytick_3">
          <g
             id="line2d_9">
            <g
               id="g180">
              <use
                 style="stroke:#000000;stroke-width:0.8;"
                 x="50.6"
                 xlink:href="#md2fa5c2357"
                 y="148.834886"
                 id="use178" />
            </g>
          </g>
          <g
             id="text_10">
            <!-- 0.4 -->
            <g
               transform="translate(27.696875 152.634105)scale(0.1 -0.1)"
               id="g189">
              <use
                 xlink:href="#DejaVuSans-48"
                 id="use183" />
              <use
                 x="63.623047"
                 xlink:href="#DejaVuSans-46"
                 id="use185" />
              <use
                 x="95.410156"
                 xlink:href="#DejaVuSans-52"
                 id="use187" />
            </g>
          </g>
        </g>
        <g
           id="ytick_4">
          <g
             id="line2d_10">
            <g
               id="g195">
              <use
                 style="stroke:#000000;stroke-width:0.8;"
                 x="50.6"
                 xlink:href="#md2fa5c2357"
                 y="106.362614"
                 id="use193" />
            </g>
          </g>
          <g
             id="text_11">
            <!-- 0.6 -->
            <g
               transform="translate(27.696875 110.161832)scale(0.1 -0.1)"
               id="g204">
              <use
                 xlink:href="#DejaVuSans-48"
                 id="use198" />
              <use
                 x="63.623047"
                 xlink:href="#DejaVuSans-46"
                 id="use200" />
              <use
                 x="95.410156"
                 xlink:href="#DejaVuSans-54"
                 id="use202" />
            </g>
          </g>
        </g>
        <g
           id="ytick_5">
          <g
             id="line2d_11">
            <g
               id="g210">
              <use
                 style="stroke:#000000;stroke-width:0.8;"
                 x="50.6"
                 xlink:href="#md2fa5c2357"
                 y="63.890341"
                 id="use208" />
            </g>
          </g>
          <g
             id="text_12">
            <!-- 0.8 -->
            <g
               transform="translate(27.696875 67.68956)scale(0.1 -0.1)"
               id="g219">
              <use
                 xlink:href="#DejaVuSans-48"
                 id="use213" />
              <use
                 x="63.623047"
                 xlink:href="#DejaVuSans-46"
                 id="use215" />
              <use
                 x="95.410156"
                 xlink:href="#DejaVuSans-56"
                 id="use217" />
            </g>
          </g>
        </g>
        <g
           id="ytick_6">
          <g
             id="line2d_12">
            <g
               id="g225">
              <use
                 style="stroke:#000000;stroke-width:0.8;"
                 x="50.6"
                 xlink:href="#md2fa5c2357"
                 y="21.418068"
                 id="use223" />
            </g>
          </g>
          <g
             id="text_13">
            <!-- 1.0 -->
            <g
               transform="translate(27.696875 25.217287)scale(0.1 -0.1)"
               id="g234">
              <use
                 xlink:href="#DejaVuSans-49"
                 id="use228" />
              <use
                 x="63.623047"
                 xlink:href="#DejaVuSans-46"
                 id="use230" />
              <use
                 x="95.410156"
                 xlink:href="#DejaVuSans-48"
                 id="use232" />
            </g>
          </g>
        </g>
        <g
           id="text_14">
          <!-- Occupation probability, $P_a(T)$ -->
          <defs
             id="defs256">
            <path
               d="M 39.40625 66.21875  Q 28.65625 66.21875 22.328125 58.203125  Q 16.015625 50.203125 16.015625 36.375  Q 16.015625 22.609375 22.328125 14.59375  Q 28.65625 6.59375 39.40625 6.59375  Q 50.140625 6.59375 56.421875 14.59375  Q 62.703125 22.609375 62.703125 36.375  Q 62.703125 50.203125 56.421875 58.203125  Q 50.140625 66.21875 39.40625 66.21875  z M 39.40625 74.21875  Q 54.734375 74.21875 63.90625 63.9375  Q 73.09375 53.65625 73.09375 36.375  Q 73.09375 19.140625 63.90625 8.859375  Q 54.734375 -1.421875 39.40625 -1.421875  Q 24.03125 -1.421875 14.8125 8.828125  Q 5.609375 19.09375 5.609375 36.375  Q 5.609375 53.65625 14.8125 63.9375  Q 24.03125 74.21875 39.40625 74.21875  z "
               id="DejaVuSans-79" />
            <path
               d="M 48.78125 52.59375  L 48.78125 44.1875  Q 44.96875 46.296875 41.140625 47.34375  Q 37.3125 48.390625 33.40625 48.390625  Q 24.65625 48.390625 19.8125 42.84375  Q 14.984375 37.3125 14.984375 27.296875  Q 14.984375 17.28125 19.8125 11.734375  Q 24.65625 6.203125 33.40625 6.203125  Q 37.3125 6.203125 41.140625 7.25  Q 44.96875 8.296875 48.78125 10.40625  L 48.78125 2.09375  Q 45.015625 0.34375 40.984375 -0.53125  Q 36.96875 -1.421875 32.421875 -1.421875  Q 20.0625 -1.421875 12.78125 6.34375  Q 5.515625 14.109375 5.515625 27.296875  Q 5.515625 40.671875 12.859375 48.328125  Q 20.21875 56 33.015625 56  Q 37.15625 56 41.109375 55.140625  Q 45.0625 54.296875 48.78125 52.59375  z "
               id="DejaVuSans-99" />
            <path
               d="M 8.5 21.578125  L 8.5 54.6875  L 17.484375 54.6875  L 17.484375 21.921875  Q 17.484375 14.15625 20.5 10.265625  Q 23.53125 6.390625 29.59375 6.390625  Q 36.859375 6.390625 41.078125 11.03125  Q 45.3125 15.671875 45.3125 23.6875  L 45.3125 54.6875  L 54.296875 54.6875  L 54.296875 0  L 45.3125 0  L 45.3125 8.40625  Q 42.046875 3.421875 37.71875 1  Q 33.40625 -1.421875 27.6875 -1.421875  Q 18.265625 -1.421875 13.375 4.4375  Q 8.5 10.296875 8.5 21.578125  z M 31.109375 56  z "
               id="DejaVuSans-117" />
            <path
               d="M 18.109375 8.203125  L 18.109375 -20.796875  L 9.078125 -20.796875  L 9.078125 54.6875  L 18.109375 54.6875  L 18.109375 46.390625  Q 20.953125 51.265625 25.265625 53.625  Q 29.59375 56 35.59375 56  Q 45.5625 56 51.78125 48.09375  Q 58.015625 40.1875 58.015625 27.296875  Q 58.015625 14.40625 51.78125 6.484375  Q 45.5625 -1.421875 35.59375 -1.421875  Q 29.59375 -1.421875 25.265625 0.953125  Q 20.953125 3.328125 18.109375 8.203125  z M 48.6875 27.296875  Q 48.6875 37.203125 44.609375 42.84375  Q 40.53125 48.484375 33.40625 48.484375  Q 26.265625 48.484375 22.1875 42.84375  Q 18.109375 37.203125 18.109375 27.296875  Q 18.109375 17.390625 22.1875 11.75  Q 26.265625 6.109375 33.40625 6.109375  Q 40.53125 6.109375 44.609375 11.75  Q 48.6875 17.390625 48.6875 27.296875  z "
               id="DejaVuSans-112" />
            <path
               d="M 34.28125 27.484375  Q 23.390625 27.484375 19.1875 25  Q 14.984375 22.515625 14.984375 16.5  Q 14.984375 11.71875 18.140625 8.90625  Q 21.296875 6.109375 26.703125 6.109375  Q 34.1875 6.109375 38.703125 11.40625  Q 43.21875 16.703125 43.21875 25.484375  L 43.21875 27.484375  z M 52.203125 31.203125  L 52.203125 0  L 43.21875 0  L 43.21875 8.296875  Q 40.140625 3.328125 35.546875 0.953125  Q 30.953125 -1.421875 24.3125 -1.421875  Q 15.921875 -1.421875 10.953125 3.296875  Q 6 8.015625 6 15.921875  Q 6 25.140625 12.171875 29.828125  Q 18.359375 34.515625 30.609375 34.515625  L 43.21875 34.515625  L 43.21875 35.40625  Q 43.21875 41.609375 39.140625 45  Q 35.0625 48.390625 27.6875 48.390625  Q 23 48.390625 18.546875 47.265625  Q 14.109375 46.140625 10.015625 43.890625  L 10.015625 52.203125  Q 14.9375 54.109375 19.578125 55.046875  Q 24.21875 56 28.609375 56  Q 40.484375 56 46.34375 49.84375  Q 52.203125 43.703125 52.203125 31.203125  z "
               id="DejaVuSans-97" />
            <path
               d="M 18.3125 70.21875  L 18.3125 54.6875  L 36.8125 54.6875  L 36.8125 47.703125  L 18.3125 47.703125  L 18.3125 18.015625  Q 18.3125 11.328125 20.140625 9.421875  Q 21.96875 7.515625 27.59375 7.515625  L 36.8125 7.515625  L 36.8125 0  L 27.59375 0  Q 17.1875 0 13.234375 3.875  Q 9.28125 7.765625 9.28125 18.015625  L 9.28125 47.703125  L 2.6875 47.703125  L 2.6875 54.6875  L 9.28125 54.6875  L 9.28125 70.21875  z "
               id="DejaVuSans-116" />
            <path
               d="M 9.421875 54.6875  L 18.40625 54.6875  L 18.40625 0  L 9.421875 0  z M 9.421875 75.984375  L 18.40625 75.984375  L 18.40625 64.59375  L 9.421875 64.59375  z "
               id="DejaVuSans-105" />
            <path
               d="M 30.609375 48.390625  Q 23.390625 48.390625 19.1875 42.75  Q 14.984375 37.109375 14.984375 27.296875  Q 14.984375 17.484375 19.15625 11.84375  Q 23.34375 6.203125 30.609375 6.203125  Q 37.796875 6.203125 41.984375 11.859375  Q 46.1875 17.53125 46.1875 27.296875  Q 46.1875 37.015625 41.984375 42.703125  Q 37.796875 48.390625 30.609375 48.390625  z M 30.609375 56  Q 42.328125 56 49.015625 48.375  Q 55.71875 40.765625 55.71875 27.296875  Q 55.71875 13.875 49.015625 6.21875  Q 42.328125 -1.421875 30.609375 -1.421875  Q 18.84375 -1.421875 12.171875 6.21875  Q 5.515625 13.875 5.515625 27.296875  Q 5.515625 40.765625 12.171875 48.375  Q 18.84375 56 30.609375 56  z "
               id="DejaVuSans-111" />
            <path
               d="M 54.890625 33.015625  L 54.890625 0  L 45.90625 0  L 45.90625 32.71875  Q 45.90625 40.484375 42.875 44.328125  Q 39.84375 48.1875 33.796875 48.1875  Q 26.515625 48.1875 22.3125 43.546875  Q 18.109375 38.921875 18.109375 30.90625  L 18.109375 0  L 9.078125 0  L 9.078125 54.6875  L 18.109375 54.6875  L 18.109375 46.1875  Q 21.34375 51.125 25.703125 53.5625  Q 30.078125 56 35.796875 56  Q 45.21875 56 50.046875 50.171875  Q 54.890625 44.34375 54.890625 33.015625  z "
               id="DejaVuSans-110" />
            <path
               d="M 41.109375 46.296875  Q 39.59375 47.171875 37.8125 47.578125  Q 36.03125 48 33.890625 48  Q 26.265625 48 22.1875 43.046875  Q 18.109375 38.09375 18.109375 28.8125  L 18.109375 0  L 9.078125 0  L 9.078125 54.6875  L 18.109375 54.6875  L 18.109375 46.1875  Q 20.953125 51.171875 25.484375 53.578125  Q 30.03125 56 36.53125 56  Q 37.453125 56 38.578125 55.875  Q 39.703125 55.765625 41.0625 55.515625  z "
               id="DejaVuSans-114" />
            <path
               d="M 48.6875 27.296875  Q 48.6875 37.203125 44.609375 42.84375  Q 40.53125 48.484375 33.40625 48.484375  Q 26.265625 48.484375 22.1875 42.84375  Q 18.109375 37.203125 18.109375 27.296875  Q 18.109375 17.390625 22.1875 11.75  Q 26.265625 6.109375 33.40625 6.109375  Q 40.53125 6.109375 44.609375 11.75  Q 48.6875 17.390625 48.6875 27.296875  z M 18.109375 46.390625  Q 20.953125 51.265625 25.265625 53.625  Q 29.59375 56 35.59375 56  Q 45.5625 56 51.78125 48.09375  Q 58.015625 40.1875 58.015625 27.296875  Q 58.015625 14.40625 51.78125 6.484375  Q 45.5625 -1.421875 35.59375 -1.421875  Q 29.59375 -1.421875 25.265625 0.953125  Q 20.953125 3.328125 18.109375 8.203125  L 18.109375 0  L 9.078125 0  L 9.078125 75.984375  L 18.109375 75.984375  z "
               id="DejaVuSans-98" />
            <path
               d="M 9.421875 75.984375  L 18.40625 75.984375  L 18.40625 0  L 9.421875 0  z "
               id="DejaVuSans-108" />
            <path
               d="M 32.171875 -5.078125  Q 28.375 -14.84375 24.75 -17.8125  Q 21.140625 -20.796875 15.09375 -20.796875  L 7.90625 -20.796875  L 7.90625 -13.28125  L 13.1875 -13.28125  Q 16.890625 -13.28125 18.9375 -11.515625  Q 21 -9.765625 23.484375 -3.21875  L 25.09375 0.875  L 2.984375 54.6875  L 12.5 54.6875  L 29.59375 11.921875  L 46.6875 54.6875  L 56.203125 54.6875  z "
               id="DejaVuSans-121" />
            <path
               d="M 11.71875 12.40625  L 22.015625 12.40625  L 22.015625 4  L 14.015625 -11.625  L 7.71875 -11.625  L 11.71875 4  z "
               id="DejaVuSans-44" />
            <path
               d="M 16.890625 72.90625  L 39.703125 72.90625  Q 49.65625 72.90625 54.875 68.265625  Q 60.109375 63.625 60.109375 54.6875  Q 60.109375 42.671875 52.390625 35.984375  Q 44.671875 29.296875 30.71875 29.296875  L 18.3125 29.296875  L 12.59375 0  L 2.6875 0  z M 25.203125 64.796875  L 19.921875 37.40625  L 32.328125 37.40625  Q 40.71875 37.40625 45.203125 41.703125  Q 49.703125 46 49.703125 54  Q 49.703125 59.125 46.65625 61.953125  Q 43.609375 64.796875 38.09375 64.796875  z "
               id="DejaVuSans-Oblique-80" />
            <path
               d="M 53.71875 31.203125  L 47.609375 0  L 38.625 0  L 40.28125 8.296875  Q 36.328125 3.421875 31.265625 1  Q 26.21875 -1.421875 20.015625 -1.421875  Q 13.03125 -1.421875 8.5625 2.84375  Q 4.109375 7.125 4.109375 13.8125  Q 4.109375 23.390625 11.75 28.953125  Q 19.390625 34.515625 32.8125 34.515625  L 45.3125 34.515625  L 45.796875 36.921875  Q 45.90625 37.3125 45.953125 37.765625  Q 46 38.234375 46 39.203125  Q 46 43.5625 42.453125 45.96875  Q 38.921875 48.390625 32.515625 48.390625  Q 28.125 48.390625 23.5 47.265625  Q 18.890625 46.140625 14.015625 43.890625  L 15.578125 52.203125  Q 20.65625 54.109375 25.515625 55.046875  Q 30.375 56 34.90625 56  Q 44.578125 56 49.625 51.796875  Q 54.6875 47.609375 54.6875 39.59375  Q 54.6875 37.984375 54.4375 35.8125  Q 54.203125 33.640625 53.71875 31.203125  z M 44 27.484375  L 35.015625 27.484375  Q 23.96875 27.484375 18.671875 24.53125  Q 13.375 21.578125 13.375 15.375  Q 13.375 11.078125 16.078125 8.640625  Q 18.796875 6.203125 23.578125 6.203125  Q 30.90625 6.203125 36.375 11.453125  Q 41.84375 16.703125 43.609375 25.484375  z "
               id="DejaVuSans-Oblique-97" />
            <path
               d="M 31 75.875  Q 24.46875 64.65625 21.28125 53.65625  Q 18.109375 42.671875 18.109375 31.390625  Q 18.109375 20.125 21.3125 9.0625  Q 24.515625 -2 31 -13.1875  L 23.1875 -13.1875  Q 15.875 -1.703125 12.234375 9.375  Q 8.59375 20.453125 8.59375 31.390625  Q 8.59375 42.28125 12.203125 53.3125  Q 15.828125 64.359375 23.1875 75.875  z "
               id="DejaVuSans-40" />
            <path
               d="M 8.015625 75.875  L 15.828125 75.875  Q 23.140625 64.359375 26.78125 53.3125  Q 30.421875 42.28125 30.421875 31.390625  Q 30.421875 20.453125 26.78125 9.375  Q 23.140625 -1.703125 15.828125 -13.1875  L 8.015625 -13.1875  Q 14.5 -2 17.703125 9.0625  Q 20.90625 20.125 20.90625 31.390625  Q 20.90625 42.671875 17.703125 53.65625  Q 14.5 64.65625 8.015625 75.875  z "
               id="DejaVuSans-41" />
          </defs>
          <g
             transform="translate(21.596875 199.84875)rotate(-90)scale(0.1 -0.1)"
             id="g316">
            <use
               transform="translate(0 0.015625)"
               xlink:href="#DejaVuSans-79"
               id="use258" />
            <use
               transform="translate(78.710938 0.015625)"
               xlink:href="#DejaVuSans-99"
               id="use260" />
            <use
               transform="translate(133.691406 0.015625)"
               xlink:href="#DejaVuSans-99"
               id="use262" />
            <use
               transform="translate(188.671875 0.015625)"
               xlink:href="#DejaVuSans-117"
               id="use264" />
            <use
               transform="translate(252.050781 0.015625)"
               xlink:href="#DejaVuSans-112"
               id="use266" />
            <use
               transform="translate(315.527344 0.015625)"
               xlink:href="#DejaVuSans-97"
               id="use268" />
            <use
               transform="translate(376.806641 0.015625)"
               xlink:href="#DejaVuSans-116"
               id="use270" />
            <use
               transform="translate(416.015625 0.015625)"
               xlink:href="#DejaVuSans-105"
               id="use272" />
            <use
               transform="translate(443.798828 0.015625)"
               xlink:href="#DejaVuSans-111"
               id="use274" />
            <use
               transform="translate(504.980469 0.015625)"
               xlink:href="#DejaVuSans-110"
               id="use276" />
            <use
               transform="translate(568.359375 0.015625)"
               xlink:href="#DejaVuSans-32"
               id="use278" />
            <use
               transform="translate(600.146484 0.015625)"
               xlink:href="#DejaVuSans-112"
               id="use280" />
            <use
               transform="translate(663.623047 0.015625)"
               xlink:href="#DejaVuSans-114"
               id="use282" />
            <use
               transform="translate(704.736328 0.015625)"
               xlink:href="#DejaVuSans-111"
               id="use284" />
            <use
               transform="translate(765.917969 0.015625)"
               xlink:href="#DejaVuSans-98"
               id="use286" />
            <use
               transform="translate(829.394531 0.015625)"
               xlink:href="#DejaVuSans-97"
               id="use288" />
            <use
               transform="translate(890.673828 0.015625)"
               xlink:href="#DejaVuSans-98"
               id="use290" />
            <use
               transform="translate(954.150391 0.015625)"
               xlink:href="#DejaVuSans-105"
               id="use292" />
            <use
               transform="translate(981.933594 0.015625)"
               xlink:href="#DejaVuSans-108"
               id="use294" />
            <use
               transform="translate(1009.716797 0.015625)"
               xlink:href="#DejaVuSans-105"
               id="use296" />
            <use
               transform="translate(1037.5 0.015625)"
               xlink:href="#DejaVuSans-116"
               id="use298" />
            <use
               transform="translate(1076.708984 0.015625)"
               xlink:href="#DejaVuSans-121"
               id="use300" />
            <use
               transform="translate(1135.888672 0.015625)"
               xlink:href="#DejaVuSans-44"
               id="use302" />
            <use
               transform="translate(1167.675781 0.015625)"
               xlink:href="#DejaVuSans-32"
               id="use304" />
            <use
               transform="translate(1199.462891 0.015625)"
               xlink:href="#DejaVuSans-Oblique-80"
               id="use306" />
            <use
               transform="translate(1259.765625 -16.390625)scale(0.7)"
               xlink:href="#DejaVuSans-Oblique-97"
               id="use308" />
            <use
               transform="translate(1305.395508 0.015625)"
               xlink:href="#DejaVuSans-40"
               id="use310" />
            <use
               transform="translate(1344.40918 0.015625)"
               xlink:href="#DejaVuSans-Oblique-84"
               id="use312" />
            <use
               transform="translate(1405.493164 0.015625)"
               xlink:href="#DejaVuSans-41"
               id="use314" />
          </g>
        </g>
      </g>
      <g
         id="LineCollection_1">
        <path
           clip-path="url(#pd16dc24f41)"
           d="M 50.6 233.779432  L 408.555 233.779432  "
           style="fill:none;stroke:#c0c0c0;stroke-dasharray:7.4,3.2;stroke-dashoffset:0;stroke-width:2;"
           id="path320" />
      </g>
      <g
         id="LineCollection_2">
        <path
           clip-path="url(#pd16dc24f41)"
           d="M 50.6 21.418068  L 408.555 21.418068  "
           style="fill:none;stroke:#c0c0c0;stroke-dasharray:7.4,3.2;stroke-dashoffset:0;stroke-width:2;"
           id="path323" />
      </g>
      <g
         id="line2d_13">
        <path
           clip-path="url(#pd16dc24f41)"
           d="M 50.6 21.418068  L 121.117135 21.527533  L 132.21374 21.781157  L 140.446705 22.177271  L 147.605805 22.740441  L 154.048995 23.473273  L 159.776275 24.339317  L 165.503555 25.434157  L 170.87288 26.686952  L 176.242205 28.171674  L 181.61153 29.895784  L 186.980855 31.861497  L 192.35018 34.065833  L 198.07746 36.671177  L 203.80474 39.52393  L 209.889975 42.803756  L 216.333165 46.524694  L 223.492265 50.913042  L 231.72523 56.220604  L 242.46388 63.428711  L 281.83893 90.138515  L 292.219625 96.762556  L 301.88441 102.663183  L 311.19124 108.079241  L 320.140115 113.030078  L 329.08899 117.72563  L 338.037865 122.167616  L 346.98674 126.361485  L 355.935615 130.315351  L 365.242445 134.183454  L 374.549275 137.815155  L 384.21406 141.350414  L 394.2368 144.778318  L 404.617495 148.090301  L 408.555 149.286791  L 408.555 149.286791  "
           style="fill:none;stroke:#1f77b4;stroke-linecap:square;stroke-width:2;"
           id="path326" />
      </g>
      <g
         id="line2d_14">
        <path
           clip-path="url(#pd16dc24f41)"
           d="M 50.6 233.779432  L 130.06601 233.670144  L 155.12286 233.369852  L 184.47517 232.778852  L 254.63435 231.278119  L 288.640075 230.841905  L 328.015125 230.570755  L 380.992465 230.446218  L 408.555 230.439747  L 408.555 230.439747  "
           style="fill:none;stroke:#ff7f0e;stroke-linecap:square;stroke-width:2;"
           id="path329" />
      </g>
      <g
         id="line2d_15">
        <path
           clip-path="url(#pd16dc24f41)"
           d="M 50.6 233.779432  L 125.77055 233.672297  L 136.151245 233.417143  L 144.026255 233.017594  L 150.8274 232.462883  L 156.912635 231.757559  L 162.639915 230.881586  L 168.367195 229.774902  L 173.73652 228.510642  L 179.105845 227.015614  L 184.47517 225.283911  L 189.844495 223.314842  L 195.21382 221.112788  L 200.9411 218.517438  L 207.026335 215.498995  L 213.469525 212.037291  L 220.27067 208.124501  L 227.787725 203.543838  L 236.7366 197.825044  L 248.90707 189.762313  L 277.54347 170.695401  L 288.640075 163.625015  L 298.662815 157.497819  L 307.969645 152.059188  L 317.276475 146.878497  L 326.22535 142.147215  L 335.174225 137.662089  L 344.1231 133.419765  L 353.42993 129.258381  L 362.73676 125.342966  L 372.401545 121.52516  L 382.06633 117.946657  L 392.08907 114.473164  L 402.469765 111.113828  L 408.555 109.250394  L 408.555 109.250394  "
           style="fill:none;stroke:#2ca02c;stroke-linecap:square;stroke-width:2;"
           id="path332" />
      </g>
      <g
         id="patch_3">
        <path
           d="M 50.6 244.3975  L 50.6 10.8  "
           style="fill:none;stroke:#000000;stroke-linecap:square;stroke-linejoin:miter;stroke-width:0.8;"
           id="path335" />
      </g>
      <g
         id="patch_4">
        <path
           d="M 408.555 244.3975  L 408.555 10.8  "
           style="fill:none;stroke:#000000;stroke-linecap:square;stroke-linejoin:miter;stroke-width:0.8;"
           id="path338" />
      </g>
      <g
         id="patch_5">
        <path
           d="M 50.6 244.3975  L 408.555 244.3975  "
           style="fill:none;stroke:#000000;stroke-linecap:square;stroke-linejoin:miter;stroke-width:0.8;"
           id="path341" />
      </g>
      <g
         id="patch_6">
        <path
           d="M 50.6 10.8  L 408.555 10.8  "
           style="fill:none;stroke:#000000;stroke-linecap:square;stroke-linejoin:miter;stroke-width:0.8;"
           id="path344" />
      </g>
      <g
         id="legend_1"
         transform="translate(0,12)"
         style="stroke-linecap:butt;stroke-linejoin:round">
        <g
           id="patch_7"
           style="stroke-linecap:butt;stroke-linejoin:round">
          <path
             d="M 325.73156,62.834375 H 401.555 q 2,0 2,-2 V 17.8 q 0,-2 -2,-2 h -75.82344 q -2,0 -2,2 v 43.034375 q 0,2 2,2 z"
             style="opacity:0.8;fill:#ffffff;stroke:#cccccc;stroke-linecap:butt;stroke-linejoin:miter"
             id="path347"
             inkscape:connector-curvature="0" />
        </g>
        <g
           id="line2d_16"
           style="stroke-linecap:butt;stroke-linejoin:round">
          <path
             d="m 327.73156,23.898438 h 20"
             style="fill:none;stroke:#1f77b4;stroke-width:2;stroke-linecap:square;stroke-linejoin:round"
             id="path350"
             inkscape:connector-curvature="0" />
        </g>
        <g
           id="line2d_17"
           style="stroke-linecap:butt;stroke-linejoin:round" />
        <g
           id="text_15"
           style="stroke-linecap:butt;stroke-linejoin:round">
          <!-- Isomer 1 -->
          <defs
             id="defs358">
            <path
               d="m 9.8125,72.90625 h 9.859375 V 0 H 9.8125 Z"
               id="DejaVuSans-73"
               inkscape:connector-curvature="0"
               style="stroke-linecap:butt;stroke-linejoin:round" />
            <path
               d="m 44.28125,53.078125 v -8.5 Q 40.484375,46.53125 36.375,47.5 q -4.09375,0.984375 -8.5,0.984375 -6.6875,0 -10.03125,-2.046875 Q 14.5,44.390625 14.5,40.28125 q 0,-3.125 2.390625,-4.90625 2.390625,-1.78125 9.625,-3.390625 l 3.078125,-0.6875 Q 39.15625,29.25 43.1875,25.515625 47.21875,21.78125 47.21875,15.09375 q 0,-7.625 -6.03125,-12.078125 -6.03125,-4.4375 -16.578125,-4.4375 -4.390625,0 -9.15625,0.859375 Q 10.6875,0.296875 5.421875,2 v 9.28125 q 4.984375,-2.59375 9.8125,-3.890625 4.828125,-1.28125 9.578125,-1.28125 6.34375,0 9.75,2.171875 3.421875,2.171875 3.421875,6.125 0,3.65625 -2.46875,5.609375 -2.453125,1.953125 -10.8125,3.765625 l -3.125,0.734375 q -8.34375,1.75 -12.0625,5.390625 -3.703125,3.640625 -3.703125,9.984375 0,7.71875 5.46875,11.90625 Q 16.75,56 26.8125,56 q 4.96875,0 9.359375,-0.734375 4.40625,-0.71875 8.109375,-2.1875 z"
               id="DejaVuSans-115"
               inkscape:connector-curvature="0"
               style="stroke-linecap:butt;stroke-linejoin:round" />
            <path
               d="M 52,44.1875 Q 55.375,50.25 60.0625,53.125 64.75,56 71.09375,56 q 8.546875,0 13.1875,-5.984375 4.640625,-5.96875 4.640625,-17 V 0 h -9.03125 v 32.71875 q 0,7.859375 -2.796875,11.65625 -2.78125,3.8125 -8.484375,3.8125 -6.984375,0 -11.046875,-4.640625 -4.046875,-4.625 -4.046875,-12.640625 V 0 h -9.03125 v 32.71875 q 0,7.90625 -2.78125,11.6875 -2.78125,3.78125 -8.59375,3.78125 -6.890625,0 -10.953125,-4.65625 -4.046875,-4.65625 -4.046875,-12.625 V 0 h -9.03125 v 54.6875 h 9.03125 v -8.5 q 3.078125,5.03125 7.375,7.421875 Q 29.78125,56 35.6875,56 41.65625,56 45.828125,52.96875 50,49.953125 52,44.1875 Z"
               id="DejaVuSans-109"
               inkscape:connector-curvature="0"
               style="stroke-linecap:butt;stroke-linejoin:round" />
            <path
               d="m 56.203125,29.59375 v -4.390625 h -41.3125 q 0.59375,-9.28125 5.59375,-14.140625 5,-4.859375 13.9375,-4.859375 5.171875,0 10.03125,1.265625 4.859375,1.265625 9.65625,3.8125 v -8.5 q -4.84375,-2.046875 -9.921875,-3.125 -5.078125,-1.078125 -10.296875,-1.078125 -13.09375,0 -20.734375,7.609375 -7.640625,7.625 -7.640625,20.625 0,13.421875 7.25,21.296875 Q 20.015625,56 32.328125,56 q 11.03125,0 17.453125,-7.109375 6.421875,-7.09375 6.421875,-19.296875 z m -8.984375,2.640625 q -0.09375,7.359375 -4.125,11.75 -4.03125,4.40625 -10.671875,4.40625 -7.515625,0 -12.03125,-4.25 -4.515625,-4.25 -5.203125,-11.96875 z"
               id="DejaVuSans-101"
               inkscape:connector-curvature="0"
               style="stroke-linecap:butt;stroke-linejoin:round" />
          </defs>
          <g
             transform="matrix(0.1,0,0,-0.1,355.73156,27.398438)"
             id="g376"
             style="stroke-linecap:butt;stroke-linejoin:round">
            <use
               xlink:href="#DejaVuSans-73"
               id="use360"
               style="stroke-linecap:butt;stroke-linejoin:round"
               x="0"
               y="0"
               width="100%"
               height="100%" />
            <use
               x="29.492188"
               xlink:href="#DejaVuSans-115"
               id="use362"
               style="stroke-linecap:butt;stroke-linejoin:round"
               y="0"
               width="100%"
               height="100%" />
            <use
               x="81.591797"
               xlink:href="#DejaVuSans-111"
               id="use364"
               style="stroke-linecap:butt;stroke-linejoin:round"
               y="0"
               width="100%"
               height="100%" />
            <use
               x="142.77344"
               xlink:href="#DejaVuSans-109"
               id="use366"
               style="stroke-linecap:butt;stroke-linejoin:round"
               y="0"
               width="100%"
               height="100%" />
            <use
               x="240.18555"
               xlink:href="#DejaVuSans-101"
               id="use368"
               style="stroke-linecap:butt;stroke-linejoin:round"
               y="0"
               width="100%"
               height="100%" />
            <use
               x="301.70898"
               xlink:href="#DejaVuSans-114"
               id="use370"
               style="stroke-linecap:butt;stroke-linejoin:round"
               y="0"
               width="100%"
               height="100%" />
            <use
               x="342.82227"
               xlink:href="#DejaVuSans-32"
               id="use372"
               style="stroke-linecap:butt;stroke-linejoin:round"
               y="0"
               width="100%"
               height="100%" />
            <use
               x="374.60938"
               xlink:href="#DejaVuSans-49"
               id="use374"
               style="stroke-linecap:butt;stroke-linejoin:round"
               y="0"
               width="100%"
               height="100%" />
          </g>
        </g>
        <g
           id="line2d_18"
           style="stroke-linecap:butt;stroke-linejoin:round">
          <path
             d="m 327.73156,38.576562 h 20"
             style="fill:none;stroke:#ff7f0e;stroke-width:2;stroke-linecap:square;stroke-linejoin:round"
             id="path379"
             inkscape:connector-curvature="0" />
        </g>
        <g
           id="line2d_19"
           style="stroke-linecap:butt;stroke-linejoin:round" />
        <g
           id="text_16"
           style="stroke-linecap:butt;stroke-linejoin:round">
          <!-- Isomer 2 -->
          <g
             transform="matrix(0.1,0,0,-0.1,355.73156,42.076562)"
             id="g399"
             style="stroke-linecap:butt;stroke-linejoin:round">
            <use
               xlink:href="#DejaVuSans-73"
               id="use383"
               style="stroke-linecap:butt;stroke-linejoin:round"
               x="0"
               y="0"
               width="100%"
               height="100%" />
            <use
               x="29.492188"
               xlink:href="#DejaVuSans-115"
               id="use385"
               style="stroke-linecap:butt;stroke-linejoin:round"
               y="0"
               width="100%"
               height="100%" />
            <use
               x="81.591797"
               xlink:href="#DejaVuSans-111"
               id="use387"
               style="stroke-linecap:butt;stroke-linejoin:round"
               y="0"
               width="100%"
               height="100%" />
            <use
               x="142.77344"
               xlink:href="#DejaVuSans-109"
               id="use389"
               style="stroke-linecap:butt;stroke-linejoin:round"
               y="0"
               width="100%"
               height="100%" />
            <use
               x="240.18555"
               xlink:href="#DejaVuSans-101"
               id="use391"
               style="stroke-linecap:butt;stroke-linejoin:round"
               y="0"
               width="100%"
               height="100%" />
            <use
               x="301.70898"
               xlink:href="#DejaVuSans-114"
               id="use393"
               style="stroke-linecap:butt;stroke-linejoin:round"
               y="0"
               width="100%"
               height="100%" />
            <use
               x="342.82227"
               xlink:href="#DejaVuSans-32"
               id="use395"
               style="stroke-linecap:butt;stroke-linejoin:round"
               y="0"
               width="100%"
               height="100%" />
            <use
               x="374.60938"
               xlink:href="#DejaVuSans-50"
               id="use397"
               style="stroke-linecap:butt;stroke-linejoin:round"
               y="0"
               width="100%"
               height="100%" />
          </g>
        </g>
        <g
           id="line2d_20"
           style="stroke-linecap:butt;stroke-linejoin:round">
          <path
             d="m 327.73156,53.254687 h 20"
             style="fill:none;stroke:#2ca02c;stroke-width:2;stroke-linecap:square;stroke-linejoin:round"
             id="path402"
             inkscape:connector-curvature="0" />
        </g>
        <g
           id="line2d_21"
           style="stroke-linecap:butt;stroke-linejoin:round" />
        <g
           id="text_17"
           style="stroke-linecap:butt;stroke-linejoin:round">
          <!-- Isomer 3 -->
          <defs
             id="defs407">
            <path
               d="M 40.578125,39.3125 Q 47.65625,37.796875 51.625,33 q 3.984375,-4.78125 3.984375,-11.8125 0,-10.78125 -7.421875,-16.703125 -7.421875,-5.90625 -21.09375,-5.90625 -4.578125,0 -9.4375,0.90625 -4.859375,0.90625 -10.03125,2.71875 v 9.515625 q 4.09375,-2.390625 8.96875,-3.609375 4.890625,-1.21875 10.21875,-1.21875 9.265625,0 14.125,3.65625 4.859375,3.65625 4.859375,10.640625 0,6.453125 -4.515625,10.078125 -4.515625,3.640625 -12.5625,3.640625 h -8.5 v 8.109375 h 8.890625 q 7.265625,0 11.125,2.90625 3.859375,2.90625 3.859375,8.375 0,5.609375 -3.984375,8.609375 -3.96875,3.015625 -11.390625,3.015625 -4.0625,0 -8.703125,-0.890625 Q 15.375,64.15625 9.8125,62.3125 v 8.78125 q 5.625,1.5625 10.53125,2.34375 4.90625,0.78125 9.25,0.78125 11.234375,0 17.765625,-5.109375 6.546875,-5.09375 6.546875,-13.78125 0,-6.0625 -3.46875,-10.234375 -3.46875,-4.171875 -9.859375,-5.78125 z"
               id="DejaVuSans-51"
               inkscape:connector-curvature="0"
               style="stroke-linecap:butt;stroke-linejoin:round" />
          </defs>
          <g
             transform="matrix(0.1,0,0,-0.1,355.73156,56.754687)"
             id="g425"
             style="stroke-linecap:butt;stroke-linejoin:round">
            <use
               xlink:href="#DejaVuSans-73"
               id="use409"
               style="stroke-linecap:butt;stroke-linejoin:round"
               x="0"
               y="0"
               width="100%"
               height="100%" />
            <use
               x="29.492188"
               xlink:href="#DejaVuSans-115"
               id="use411"
               style="stroke-linecap:butt;stroke-linejoin:round"
               y="0"
               width="100%"
               height="100%" />
            <use
               x="81.591797"
               xlink:href="#DejaVuSans-111"
               id="use413"
               style="stroke-linecap:butt;stroke-linejoin:round"
               y="0"
               width="100%"
               height="100%" />
            <use
               x="142.77344"
               xlink:href="#DejaVuSans-109"
               id="use415"
               style="stroke-linecap:butt;stroke-linejoin:round"
               y="0"
               width="100%"
               height="100%" />
            <use
               x="240.18555"
               xlink:href="#DejaVuSans-101"
               id="use417"
               style="stroke-linecap:butt;stroke-linejoin:round"
               y="0"
               width="100%"
               height="100%" />
            <use
               x="301.70898"
               xlink:href="#DejaVuSans-114"
               id="use419"
               style="stroke-linecap:butt;stroke-linejoin:round"
               y="0"
               width="100%"
               height="100%" />
            <use
               x="342.82227"
               xlink:href="#DejaVuSans-32"
               id="use421"
               style="stroke-linecap:butt;stroke-linejoin:round"
               y="0"
               width="100%"
               height="100%" />
            <use
               x="374.60938"
               xlink:href="#DejaVuSans-51"
               id="use423"
               style="stroke-linecap:butt;stroke-linejoin:round"
               y="0"
               width="100%"
               height="100%" />
          </g>
        </g>
      </g>
    </g>
  </g>
  <defs
     id="defs434">
    <clipPath
       id="pd16dc24f41">
      <rect
         height="233.5975"
         width="357.955"
         x="50.6"
         y="10.8"
         id="rect431" />
    </clipPath>
  </defs>
</svg>
