<?xml version="1.0" encoding="UTF-8" standalone="no"?>
<!-- Created with matplotlib (https://matplotlib.org/) -->

<svg
   xmlns:dc="http://purl.org/dc/elements/1.1/"
   xmlns:cc="http://creativecommons.org/ns#"
   xmlns:rdf="http://www.w3.org/1999/02/22-rdf-syntax-ns#"
   xmlns:svg="http://www.w3.org/2000/svg"
   xmlns="http://www.w3.org/2000/svg"
   xmlns:xlink="http://www.w3.org/1999/xlink"
   xmlns:sodipodi="http://sodipodi.sourceforge.net/DTD/sodipodi-0.dtd"
   xmlns:inkscape="http://www.inkscape.org/namespaces/inkscape"
   height="288pt"
   version="1.1"
   viewBox="0 0 432 288"
   width="432pt"
   id="svg321"
   sodipodi:docname="Pt5_C.svg"
   inkscape:version="0.92.3 (2405546, 2018-03-11)">
  <metadata
     id="metadata325">
    <rdf:RDF>
      <cc:Work
         rdf:about="">
        <dc:format>image/svg+xml</dc:format>
        <dc:type
           rdf:resource="http://purl.org/dc/dcmitype/StillImage" />
      </cc:Work>
    </rdf:RDF>
  </metadata>
  <sodipodi:namedview
     pagecolor="#ffffff"
     bordercolor="#666666"
     borderopacity="1"
     objecttolerance="10"
     gridtolerance="10"
     guidetolerance="10"
     inkscape:pageopacity="0"
     inkscape:pageshadow="2"
     inkscape:window-width="1920"
     inkscape:window-height="1013"
     id="namedview323"
     showgrid="false"
     inkscape:zoom="0.49479167"
     inkscape:cx="287.84906"
     inkscape:cy="192.06415"
     inkscape:window-x="0"
     inkscape:window-y="0"
     inkscape:window-maximized="1"
     inkscape:current-layer="patch_1" />
  <defs
     id="defs4">
    <style
       type="text/css"
       id="style2">
*{stroke-linecap:butt;stroke-linejoin:round;}
  </style>
  </defs>
  <g
     id="figure_1">
    <g
       id="patch_1" />
    <g
       id="axes_1">
      <g
         id="patch_2">
        <path
           d="M 47.45 244.3975  L 408.555 244.3975  L 408.555 14.76  L 47.45 14.76  z "
           style="fill:#ffffff;"
           id="path9" />
      </g>
      <g
         id="matplotlib.axis_1">
        <g
           id="xtick_1">
          <g
             id="line2d_1">
            <defs
               id="defs13">
              <path
                 d="M 0 0  L 0 3.5  "
                 id="mf5452c4952"
                 style="stroke:#000000;stroke-width:0.8;" />
            </defs>
            <g
               id="g17">
              <use
                 style="stroke:#000000;stroke-width:0.8;"
                 x="47.45"
                 xlink:href="#mf5452c4952"
                 y="244.3975"
                 id="use15" />
            </g>
          </g>
          <g
             id="text_1">
            <!-- 0 -->
            <defs
               id="defs21">
              <path
                 d="M 31.78125 66.40625  Q 24.171875 66.40625 20.328125 58.90625  Q 16.5 51.421875 16.5 36.375  Q 16.5 21.390625 20.328125 13.890625  Q 24.171875 6.390625 31.78125 6.390625  Q 39.453125 6.390625 43.28125 13.890625  Q 47.125 21.390625 47.125 36.375  Q 47.125 51.421875 43.28125 58.90625  Q 39.453125 66.40625 31.78125 66.40625  z M 31.78125 74.21875  Q 44.046875 74.21875 50.515625 64.515625  Q 56.984375 54.828125 56.984375 36.375  Q 56.984375 17.96875 50.515625 8.265625  Q 44.046875 -1.421875 31.78125 -1.421875  Q 19.53125 -1.421875 13.0625 8.265625  Q 6.59375 17.96875 6.59375 36.375  Q 6.59375 54.828125 13.0625 64.515625  Q 19.53125 74.21875 31.78125 74.21875  z "
                 id="DejaVuSans-48" />
            </defs>
            <g
               transform="translate(44.26875 258.995937)scale(0.1 -0.1)"
               id="g25">
              <use
                 xlink:href="#DejaVuSans-48"
                 id="use23" />
            </g>
          </g>
        </g>
        <g
           id="xtick_2">
          <g
             id="line2d_2">
            <g
               id="g31">
              <use
                 style="stroke:#000000;stroke-width:0.8;"
                 x="119.671"
                 xlink:href="#mf5452c4952"
                 y="244.3975"
                 id="use29" />
            </g>
          </g>
          <g
             id="text_2">
            <!-- 200 -->
            <defs
               id="defs35">
              <path
                 d="M 19.1875 8.296875  L 53.609375 8.296875  L 53.609375 0  L 7.328125 0  L 7.328125 8.296875  Q 12.9375 14.109375 22.625 23.890625  Q 32.328125 33.6875 34.8125 36.53125  Q 39.546875 41.84375 41.421875 45.53125  Q 43.3125 49.21875 43.3125 52.78125  Q 43.3125 58.59375 39.234375 62.25  Q 35.15625 65.921875 28.609375 65.921875  Q 23.96875 65.921875 18.8125 64.3125  Q 13.671875 62.703125 7.8125 59.421875  L 7.8125 69.390625  Q 13.765625 71.78125 18.9375 73  Q 24.125 74.21875 28.421875 74.21875  Q 39.75 74.21875 46.484375 68.546875  Q 53.21875 62.890625 53.21875 53.421875  Q 53.21875 48.921875 51.53125 44.890625  Q 49.859375 40.875 45.40625 35.40625  Q 44.1875 33.984375 37.640625 27.21875  Q 31.109375 20.453125 19.1875 8.296875  z "
                 id="DejaVuSans-50" />
            </defs>
            <g
               transform="translate(110.12725 258.995937)scale(0.1 -0.1)"
               id="g43">
              <use
                 xlink:href="#DejaVuSans-50"
                 id="use37" />
              <use
                 x="63.623047"
                 xlink:href="#DejaVuSans-48"
                 id="use39" />
              <use
                 x="127.246094"
                 xlink:href="#DejaVuSans-48"
                 id="use41" />
            </g>
          </g>
        </g>
        <g
           id="xtick_3">
          <g
             id="line2d_3">
            <g
               id="g49">
              <use
                 style="stroke:#000000;stroke-width:0.8;"
                 x="191.892"
                 xlink:href="#mf5452c4952"
                 y="244.3975"
                 id="use47" />
            </g>
          </g>
          <g
             id="text_3">
            <!-- 400 -->
            <defs
               id="defs53">
              <path
                 d="M 37.796875 64.3125  L 12.890625 25.390625  L 37.796875 25.390625  z M 35.203125 72.90625  L 47.609375 72.90625  L 47.609375 25.390625  L 58.015625 25.390625  L 58.015625 17.1875  L 47.609375 17.1875  L 47.609375 0  L 37.796875 0  L 37.796875 17.1875  L 4.890625 17.1875  L 4.890625 26.703125  z "
                 id="DejaVuSans-52" />
            </defs>
            <g
               transform="translate(182.34825 258.995937)scale(0.1 -0.1)"
               id="g61">
              <use
                 xlink:href="#DejaVuSans-52"
                 id="use55" />
              <use
                 x="63.623047"
                 xlink:href="#DejaVuSans-48"
                 id="use57" />
              <use
                 x="127.246094"
                 xlink:href="#DejaVuSans-48"
                 id="use59" />
            </g>
          </g>
        </g>
        <g
           id="xtick_4">
          <g
             id="line2d_4">
            <g
               id="g67">
              <use
                 style="stroke:#000000;stroke-width:0.8;"
                 x="264.113"
                 xlink:href="#mf5452c4952"
                 y="244.3975"
                 id="use65" />
            </g>
          </g>
          <g
             id="text_4">
            <!-- 600 -->
            <defs
               id="defs71">
              <path
                 d="M 33.015625 40.375  Q 26.375 40.375 22.484375 35.828125  Q 18.609375 31.296875 18.609375 23.390625  Q 18.609375 15.53125 22.484375 10.953125  Q 26.375 6.390625 33.015625 6.390625  Q 39.65625 6.390625 43.53125 10.953125  Q 47.40625 15.53125 47.40625 23.390625  Q 47.40625 31.296875 43.53125 35.828125  Q 39.65625 40.375 33.015625 40.375  z M 52.59375 71.296875  L 52.59375 62.3125  Q 48.875 64.0625 45.09375 64.984375  Q 41.3125 65.921875 37.59375 65.921875  Q 27.828125 65.921875 22.671875 59.328125  Q 17.53125 52.734375 16.796875 39.40625  Q 19.671875 43.65625 24.015625 45.921875  Q 28.375 48.1875 33.59375 48.1875  Q 44.578125 48.1875 50.953125 41.515625  Q 57.328125 34.859375 57.328125 23.390625  Q 57.328125 12.15625 50.6875 5.359375  Q 44.046875 -1.421875 33.015625 -1.421875  Q 20.359375 -1.421875 13.671875 8.265625  Q 6.984375 17.96875 6.984375 36.375  Q 6.984375 53.65625 15.1875 63.9375  Q 23.390625 74.21875 37.203125 74.21875  Q 40.921875 74.21875 44.703125 73.484375  Q 48.484375 72.75 52.59375 71.296875  z "
                 id="DejaVuSans-54" />
            </defs>
            <g
               transform="translate(254.56925 258.995937)scale(0.1 -0.1)"
               id="g79">
              <use
                 xlink:href="#DejaVuSans-54"
                 id="use73" />
              <use
                 x="63.623047"
                 xlink:href="#DejaVuSans-48"
                 id="use75" />
              <use
                 x="127.246094"
                 xlink:href="#DejaVuSans-48"
                 id="use77" />
            </g>
          </g>
        </g>
        <g
           id="xtick_5">
          <g
             id="line2d_5">
            <g
               id="g85">
              <use
                 style="stroke:#000000;stroke-width:0.8;"
                 x="336.334"
                 xlink:href="#mf5452c4952"
                 y="244.3975"
                 id="use83" />
            </g>
          </g>
          <g
             id="text_5">
            <!-- 800 -->
            <defs
               id="defs89">
              <path
                 d="M 31.78125 34.625  Q 24.75 34.625 20.71875 30.859375  Q 16.703125 27.09375 16.703125 20.515625  Q 16.703125 13.921875 20.71875 10.15625  Q 24.75 6.390625 31.78125 6.390625  Q 38.8125 6.390625 42.859375 10.171875  Q 46.921875 13.96875 46.921875 20.515625  Q 46.921875 27.09375 42.890625 30.859375  Q 38.875 34.625 31.78125 34.625  z M 21.921875 38.8125  Q 15.578125 40.375 12.03125 44.71875  Q 8.5 49.078125 8.5 55.328125  Q 8.5 64.0625 14.71875 69.140625  Q 20.953125 74.21875 31.78125 74.21875  Q 42.671875 74.21875 48.875 69.140625  Q 55.078125 64.0625 55.078125 55.328125  Q 55.078125 49.078125 51.53125 44.71875  Q 48 40.375 41.703125 38.8125  Q 48.828125 37.15625 52.796875 32.3125  Q 56.78125 27.484375 56.78125 20.515625  Q 56.78125 9.90625 50.3125 4.234375  Q 43.84375 -1.421875 31.78125 -1.421875  Q 19.734375 -1.421875 13.25 4.234375  Q 6.78125 9.90625 6.78125 20.515625  Q 6.78125 27.484375 10.78125 32.3125  Q 14.796875 37.15625 21.921875 38.8125  z M 18.3125 54.390625  Q 18.3125 48.734375 21.84375 45.5625  Q 25.390625 42.390625 31.78125 42.390625  Q 38.140625 42.390625 41.71875 45.5625  Q 45.3125 48.734375 45.3125 54.390625  Q 45.3125 60.0625 41.71875 63.234375  Q 38.140625 66.40625 31.78125 66.40625  Q 25.390625 66.40625 21.84375 63.234375  Q 18.3125 60.0625 18.3125 54.390625  z "
                 id="DejaVuSans-56" />
            </defs>
            <g
               transform="translate(326.79025 258.995937)scale(0.1 -0.1)"
               id="g97">
              <use
                 xlink:href="#DejaVuSans-56"
                 id="use91" />
              <use
                 x="63.623047"
                 xlink:href="#DejaVuSans-48"
                 id="use93" />
              <use
                 x="127.246094"
                 xlink:href="#DejaVuSans-48"
                 id="use95" />
            </g>
          </g>
        </g>
        <g
           id="xtick_6">
          <g
             id="line2d_6">
            <g
               id="g103">
              <use
                 style="stroke:#000000;stroke-width:0.8;"
                 x="408.555"
                 xlink:href="#mf5452c4952"
                 y="244.3975"
                 id="use101" />
            </g>
          </g>
          <g
             id="text_6">
            <!-- 1000 -->
            <defs
               id="defs107">
              <path
                 d="M 12.40625 8.296875  L 28.515625 8.296875  L 28.515625 63.921875  L 10.984375 60.40625  L 10.984375 69.390625  L 28.421875 72.90625  L 38.28125 72.90625  L 38.28125 8.296875  L 54.390625 8.296875  L 54.390625 0  L 12.40625 0  z "
                 id="DejaVuSans-49" />
            </defs>
            <g
               transform="translate(395.83 258.995937)scale(0.1 -0.1)"
               id="g117">
              <use
                 xlink:href="#DejaVuSans-49"
                 id="use109" />
              <use
                 x="63.623047"
                 xlink:href="#DejaVuSans-48"
                 id="use111" />
              <use
                 x="127.246094"
                 xlink:href="#DejaVuSans-48"
                 id="use113" />
              <use
                 x="190.869141"
                 xlink:href="#DejaVuSans-48"
                 id="use115" />
            </g>
          </g>
        </g>
        <g
           id="text_7">
          <!-- $T$ [K] -->
          <defs
             id="defs126">
            <path
               d="M 5.90625 72.90625  L 67.578125 72.90625  L 66.015625 64.59375  L 39.984375 64.59375  L 27.484375 0  L 17.578125 0  L 30.078125 64.59375  L 4.296875 64.59375  z "
               id="DejaVuSans-Oblique-84" />
            <path
               id="DejaVuSans-32" />
            <path
               d="M 8.59375 75.984375  L 29.296875 75.984375  L 29.296875 69  L 17.578125 69  L 17.578125 -6.203125  L 29.296875 -6.203125  L 29.296875 -13.1875  L 8.59375 -13.1875  z "
               id="DejaVuSans-91" />
            <path
               d="M 9.8125 72.90625  L 19.671875 72.90625  L 19.671875 42.09375  L 52.390625 72.90625  L 65.09375 72.90625  L 28.90625 38.921875  L 67.671875 0  L 54.6875 0  L 19.671875 35.109375  L 19.671875 0  L 9.8125 0  z "
               id="DejaVuSans-75" />
            <path
               d="M 30.421875 75.984375  L 30.421875 -13.1875  L 9.71875 -13.1875  L 9.71875 -6.203125  L 21.390625 -6.203125  L 21.390625 69  L 9.71875 69  L 9.71875 75.984375  z "
               id="DejaVuSans-93" />
          </defs>
          <g
             transform="translate(216.1525 272.674062)scale(0.1 -0.1)"
             id="g138">
            <use
               transform="translate(0 0.015625)"
               xlink:href="#DejaVuSans-Oblique-84"
               id="use128" />
            <use
               transform="translate(61.083984 0.015625)"
               xlink:href="#DejaVuSans-32"
               id="use130" />
            <use
               transform="translate(92.871094 0.015625)"
               xlink:href="#DejaVuSans-91"
               id="use132" />
            <use
               transform="translate(131.884766 0.015625)"
               xlink:href="#DejaVuSans-75"
               id="use134" />
            <use
               transform="translate(197.460938 0.015625)"
               xlink:href="#DejaVuSans-93"
               id="use136" />
          </g>
        </g>
      </g>
      <g
         id="matplotlib.axis_2">
        <g
           id="ytick_1">
          <g
             id="line2d_7">
            <defs
               id="defs143">
              <path
                 d="M 0 0  L -3.5 0  "
                 id="m9538e3e16a"
                 style="stroke:#000000;stroke-width:0.8;" />
            </defs>
            <g
               id="g147">
              <use
                 style="stroke:#000000;stroke-width:0.8;"
                 x="47.45"
                 xlink:href="#m9538e3e16a"
                 y="244.3975"
                 id="use145" />
            </g>
          </g>
          <g
             id="text_8">
            <!-- 0 -->
            <g
               transform="translate(34.0875 248.196719)scale(0.1 -0.1)"
               id="g152">
              <use
                 xlink:href="#DejaVuSans-48"
                 id="use150" />
            </g>
          </g>
        </g>
        <g
           id="ytick_2">
          <g
             id="line2d_8">
            <g
               id="g158">
              <use
                 style="stroke:#000000;stroke-width:0.8;"
                 x="47.45"
                 xlink:href="#m9538e3e16a"
                 y="211.592143"
                 id="use156" />
            </g>
          </g>
          <g
             id="text_9">
            <!-- 2 -->
            <g
               transform="translate(34.0875 215.391362)scale(0.1 -0.1)"
               id="g163">
              <use
                 xlink:href="#DejaVuSans-50"
                 id="use161" />
            </g>
          </g>
        </g>
        <g
           id="ytick_3">
          <g
             id="line2d_9">
            <g
               id="g169">
              <use
                 style="stroke:#000000;stroke-width:0.8;"
                 x="47.45"
                 xlink:href="#m9538e3e16a"
                 y="178.786786"
                 id="use167" />
            </g>
          </g>
          <g
             id="text_10">
            <!-- 4 -->
            <g
               transform="translate(34.0875 182.586004)scale(0.1 -0.1)"
               id="g174">
              <use
                 xlink:href="#DejaVuSans-52"
                 id="use172" />
            </g>
          </g>
        </g>
        <g
           id="ytick_4">
          <g
             id="line2d_10">
            <g
               id="g180">
              <use
                 style="stroke:#000000;stroke-width:0.8;"
                 x="47.45"
                 xlink:href="#m9538e3e16a"
                 y="145.981429"
                 id="use178" />
            </g>
          </g>
          <g
             id="text_11">
            <!-- 6 -->
            <g
               transform="translate(34.0875 149.780647)scale(0.1 -0.1)"
               id="g185">
              <use
                 xlink:href="#DejaVuSans-54"
                 id="use183" />
            </g>
          </g>
        </g>
        <g
           id="ytick_5">
          <g
             id="line2d_11">
            <g
               id="g191">
              <use
                 style="stroke:#000000;stroke-width:0.8;"
                 x="47.45"
                 xlink:href="#m9538e3e16a"
                 y="113.176071"
                 id="use189" />
            </g>
          </g>
          <g
             id="text_12">
            <!-- 8 -->
            <g
               transform="translate(34.0875 116.97529)scale(0.1 -0.1)"
               id="g196">
              <use
                 xlink:href="#DejaVuSans-56"
                 id="use194" />
            </g>
          </g>
        </g>
        <g
           id="ytick_6">
          <g
             id="line2d_12">
            <g
               id="g202">
              <use
                 style="stroke:#000000;stroke-width:0.8;"
                 x="47.45"
                 xlink:href="#m9538e3e16a"
                 y="80.370714"
                 id="use200" />
            </g>
          </g>
          <g
             id="text_13">
            <!-- 10 -->
            <g
               transform="translate(27.725 84.169933)scale(0.1 -0.1)"
               id="g209">
              <use
                 xlink:href="#DejaVuSans-49"
                 id="use205" />
              <use
                 x="63.623047"
                 xlink:href="#DejaVuSans-48"
                 id="use207" />
            </g>
          </g>
        </g>
        <g
           id="ytick_7">
          <g
             id="line2d_13">
            <g
               id="g215">
              <use
                 style="stroke:#000000;stroke-width:0.8;"
                 x="47.45"
                 xlink:href="#m9538e3e16a"
                 y="47.565357"
                 id="use213" />
            </g>
          </g>
          <g
             id="text_14">
            <!-- 12 -->
            <g
               transform="translate(27.725 51.364576)scale(0.1 -0.1)"
               id="g222">
              <use
                 xlink:href="#DejaVuSans-49"
                 id="use218" />
              <use
                 x="63.623047"
                 xlink:href="#DejaVuSans-50"
                 id="use220" />
            </g>
          </g>
        </g>
        <g
           id="ytick_8">
          <g
             id="line2d_14">
            <g
               id="g228">
              <use
                 style="stroke:#000000;stroke-width:0.8;"
                 x="47.45"
                 xlink:href="#m9538e3e16a"
                 y="14.76"
                 id="use226" />
            </g>
          </g>
          <g
             id="text_15">
            <!-- 14 -->
            <g
               transform="translate(27.725 18.559219)scale(0.1 -0.1)"
               id="g235">
              <use
                 xlink:href="#DejaVuSans-49"
                 id="use231" />
              <use
                 x="63.623047"
                 xlink:href="#DejaVuSans-52"
                 id="use233" />
            </g>
          </g>
        </g>
        <g
           id="text_16">
          <!-- Heat capacity, $C_V/k_B$ -->
          <defs
             id="defs253">
            <path
               d="M 9.8125 72.90625  L 19.671875 72.90625  L 19.671875 43.015625  L 55.515625 43.015625  L 55.515625 72.90625  L 65.375 72.90625  L 65.375 0  L 55.515625 0  L 55.515625 34.71875  L 19.671875 34.71875  L 19.671875 0  L 9.8125 0  z "
               id="DejaVuSans-72" />
            <path
               d="M 56.203125 29.59375  L 56.203125 25.203125  L 14.890625 25.203125  Q 15.484375 15.921875 20.484375 11.0625  Q 25.484375 6.203125 34.421875 6.203125  Q 39.59375 6.203125 44.453125 7.46875  Q 49.3125 8.734375 54.109375 11.28125  L 54.109375 2.78125  Q 49.265625 0.734375 44.1875 -0.34375  Q 39.109375 -1.421875 33.890625 -1.421875  Q 20.796875 -1.421875 13.15625 6.1875  Q 5.515625 13.8125 5.515625 26.8125  Q 5.515625 40.234375 12.765625 48.109375  Q 20.015625 56 32.328125 56  Q 43.359375 56 49.78125 48.890625  Q 56.203125 41.796875 56.203125 29.59375  z M 47.21875 32.234375  Q 47.125 39.59375 43.09375 43.984375  Q 39.0625 48.390625 32.421875 48.390625  Q 24.90625 48.390625 20.390625 44.140625  Q 15.875 39.890625 15.1875 32.171875  z "
               id="DejaVuSans-101" />
            <path
               d="M 34.28125 27.484375  Q 23.390625 27.484375 19.1875 25  Q 14.984375 22.515625 14.984375 16.5  Q 14.984375 11.71875 18.140625 8.90625  Q 21.296875 6.109375 26.703125 6.109375  Q 34.1875 6.109375 38.703125 11.40625  Q 43.21875 16.703125 43.21875 25.484375  L 43.21875 27.484375  z M 52.203125 31.203125  L 52.203125 0  L 43.21875 0  L 43.21875 8.296875  Q 40.140625 3.328125 35.546875 0.953125  Q 30.953125 -1.421875 24.3125 -1.421875  Q 15.921875 -1.421875 10.953125 3.296875  Q 6 8.015625 6 15.921875  Q 6 25.140625 12.171875 29.828125  Q 18.359375 34.515625 30.609375 34.515625  L 43.21875 34.515625  L 43.21875 35.40625  Q 43.21875 41.609375 39.140625 45  Q 35.0625 48.390625 27.6875 48.390625  Q 23 48.390625 18.546875 47.265625  Q 14.109375 46.140625 10.015625 43.890625  L 10.015625 52.203125  Q 14.9375 54.109375 19.578125 55.046875  Q 24.21875 56 28.609375 56  Q 40.484375 56 46.34375 49.84375  Q 52.203125 43.703125 52.203125 31.203125  z "
               id="DejaVuSans-97" />
            <path
               d="M 18.3125 70.21875  L 18.3125 54.6875  L 36.8125 54.6875  L 36.8125 47.703125  L 18.3125 47.703125  L 18.3125 18.015625  Q 18.3125 11.328125 20.140625 9.421875  Q 21.96875 7.515625 27.59375 7.515625  L 36.8125 7.515625  L 36.8125 0  L 27.59375 0  Q 17.1875 0 13.234375 3.875  Q 9.28125 7.765625 9.28125 18.015625  L 9.28125 47.703125  L 2.6875 47.703125  L 2.6875 54.6875  L 9.28125 54.6875  L 9.28125 70.21875  z "
               id="DejaVuSans-116" />
            <path
               d="M 48.78125 52.59375  L 48.78125 44.1875  Q 44.96875 46.296875 41.140625 47.34375  Q 37.3125 48.390625 33.40625 48.390625  Q 24.65625 48.390625 19.8125 42.84375  Q 14.984375 37.3125 14.984375 27.296875  Q 14.984375 17.28125 19.8125 11.734375  Q 24.65625 6.203125 33.40625 6.203125  Q 37.3125 6.203125 41.140625 7.25  Q 44.96875 8.296875 48.78125 10.40625  L 48.78125 2.09375  Q 45.015625 0.34375 40.984375 -0.53125  Q 36.96875 -1.421875 32.421875 -1.421875  Q 20.0625 -1.421875 12.78125 6.34375  Q 5.515625 14.109375 5.515625 27.296875  Q 5.515625 40.671875 12.859375 48.328125  Q 20.21875 56 33.015625 56  Q 37.15625 56 41.109375 55.140625  Q 45.0625 54.296875 48.78125 52.59375  z "
               id="DejaVuSans-99" />
            <path
               d="M 18.109375 8.203125  L 18.109375 -20.796875  L 9.078125 -20.796875  L 9.078125 54.6875  L 18.109375 54.6875  L 18.109375 46.390625  Q 20.953125 51.265625 25.265625 53.625  Q 29.59375 56 35.59375 56  Q 45.5625 56 51.78125 48.09375  Q 58.015625 40.1875 58.015625 27.296875  Q 58.015625 14.40625 51.78125 6.484375  Q 45.5625 -1.421875 35.59375 -1.421875  Q 29.59375 -1.421875 25.265625 0.953125  Q 20.953125 3.328125 18.109375 8.203125  z M 48.6875 27.296875  Q 48.6875 37.203125 44.609375 42.84375  Q 40.53125 48.484375 33.40625 48.484375  Q 26.265625 48.484375 22.1875 42.84375  Q 18.109375 37.203125 18.109375 27.296875  Q 18.109375 17.390625 22.1875 11.75  Q 26.265625 6.109375 33.40625 6.109375  Q 40.53125 6.109375 44.609375 11.75  Q 48.6875 17.390625 48.6875 27.296875  z "
               id="DejaVuSans-112" />
            <path
               d="M 9.421875 54.6875  L 18.40625 54.6875  L 18.40625 0  L 9.421875 0  z M 9.421875 75.984375  L 18.40625 75.984375  L 18.40625 64.59375  L 9.421875 64.59375  z "
               id="DejaVuSans-105" />
            <path
               d="M 32.171875 -5.078125  Q 28.375 -14.84375 24.75 -17.8125  Q 21.140625 -20.796875 15.09375 -20.796875  L 7.90625 -20.796875  L 7.90625 -13.28125  L 13.1875 -13.28125  Q 16.890625 -13.28125 18.9375 -11.515625  Q 21 -9.765625 23.484375 -3.21875  L 25.09375 0.875  L 2.984375 54.6875  L 12.5 54.6875  L 29.59375 11.921875  L 46.6875 54.6875  L 56.203125 54.6875  z "
               id="DejaVuSans-121" />
            <path
               d="M 11.71875 12.40625  L 22.015625 12.40625  L 22.015625 4  L 14.015625 -11.625  L 7.71875 -11.625  L 11.71875 4  z "
               id="DejaVuSans-44" />
            <path
               d="M 69.484375 67.28125  L 67.484375 56.890625  Q 62.796875 61.625 57.546875 63.921875  Q 52.296875 66.21875 46.1875 66.21875  Q 37.84375 66.21875 31.515625 62.203125  Q 25.203125 58.203125 20.609375 50  Q 17.671875 44.734375 16.125 38.84375  Q 14.59375 32.953125 14.59375 27  Q 14.59375 17.046875 19.75 11.8125  Q 24.90625 6.59375 34.71875 6.59375  Q 41.5 6.59375 47.75 8.765625  Q 54 10.9375 59.90625 15.28125  L 57.625 3.609375  Q 51.8125 1.125 45.875 -0.140625  Q 39.9375 -1.421875 33.984375 -1.421875  Q 19.96875 -1.421875 12.078125 6.1875  Q 4.203125 13.8125 4.203125 27.390625  Q 4.203125 36.078125 7.203125 44.46875  Q 10.203125 52.875 15.828125 59.8125  Q 21.78125 67.1875 29.421875 70.703125  Q 37.0625 74.21875 47.21875 74.21875  Q 53.46875 74.21875 59.0625 72.484375  Q 64.65625 70.75 69.484375 67.28125  z "
               id="DejaVuSans-Oblique-67" />
            <path
               d="M 20.609375 0  L 7.8125 72.90625  L 17.484375 72.90625  L 28.078125 10.203125  L 63.484375 72.90625  L 74.21875 72.90625  L 32.078125 0  z "
               id="DejaVuSans-Oblique-86" />
            <path
               d="M 25.390625 72.90625  L 33.6875 72.90625  L 8.296875 -9.28125  L 0 -9.28125  z "
               id="DejaVuSans-47" />
            <path
               d="M 18.3125 75.984375  L 27.296875 75.984375  L 18.703125 31.6875  L 49.515625 54.6875  L 61.1875 54.6875  L 26.8125 28.515625  L 51.90625 0  L 41.015625 0  L 17.671875 26.703125  L 12.5 0  L 3.515625 0  z "
               id="DejaVuSans-Oblique-107" />
            <path
               d="M 16.890625 72.90625  L 42.09375 72.90625  Q 52.34375 72.90625 57.421875 69.09375  Q 62.5 65.28125 62.5 57.625  Q 62.5 50.59375 58.125 45.484375  Q 53.765625 40.375 46.6875 39.3125  Q 52.734375 37.9375 55.765625 34.078125  Q 58.796875 30.21875 58.796875 23.78125  Q 58.796875 12.796875 50.65625 6.390625  Q 42.53125 0 28.421875 0  L 2.6875 0  z M 19.28125 34.8125  L 14.109375 8.109375  L 29.984375 8.109375  Q 38.921875 8.109375 43.75 12.203125  Q 48.578125 16.3125 48.578125 23.78125  Q 48.578125 29.546875 45.375 32.171875  Q 42.1875 34.8125 35.109375 34.8125  z M 25.09375 64.796875  L 20.796875 42.828125  L 35.5 42.828125  Q 43.359375 42.828125 47.78125 46.234375  Q 52.203125 49.65625 52.203125 55.71875  Q 52.203125 60.453125 49.21875 62.625  Q 46.234375 64.796875 39.703125 64.796875  z "
               id="DejaVuSans-Oblique-66" />
          </defs>
          <g
             transform="translate(21.625 180.47875)rotate(-90)scale(0.1 -0.1)"
             id="g295">
            <use
               transform="translate(0 0.015625)"
               xlink:href="#DejaVuSans-72"
               id="use255" />
            <use
               transform="translate(75.195312 0.015625)"
               xlink:href="#DejaVuSans-101"
               id="use257" />
            <use
               transform="translate(136.71875 0.015625)"
               xlink:href="#DejaVuSans-97"
               id="use259" />
            <use
               transform="translate(197.998047 0.015625)"
               xlink:href="#DejaVuSans-116"
               id="use261" />
            <use
               transform="translate(237.207031 0.015625)"
               xlink:href="#DejaVuSans-32"
               id="use263" />
            <use
               transform="translate(268.994141 0.015625)"
               xlink:href="#DejaVuSans-99"
               id="use265" />
            <use
               transform="translate(323.974609 0.015625)"
               xlink:href="#DejaVuSans-97"
               id="use267" />
            <use
               transform="translate(385.253906 0.015625)"
               xlink:href="#DejaVuSans-112"
               id="use269" />
            <use
               transform="translate(448.730469 0.015625)"
               xlink:href="#DejaVuSans-97"
               id="use271" />
            <use
               transform="translate(510.009766 0.015625)"
               xlink:href="#DejaVuSans-99"
               id="use273" />
            <use
               transform="translate(564.990234 0.015625)"
               xlink:href="#DejaVuSans-105"
               id="use275" />
            <use
               transform="translate(592.773438 0.015625)"
               xlink:href="#DejaVuSans-116"
               id="use277" />
            <use
               transform="translate(631.982422 0.015625)"
               xlink:href="#DejaVuSans-121"
               id="use279" />
            <use
               transform="translate(691.162109 0.015625)"
               xlink:href="#DejaVuSans-44"
               id="use281" />
            <use
               transform="translate(722.949219 0.015625)"
               xlink:href="#DejaVuSans-32"
               id="use283" />
            <use
               transform="translate(754.736328 0.015625)"
               xlink:href="#DejaVuSans-Oblique-67"
               id="use285" />
            <use
               transform="translate(824.560547 -16.390625)scale(0.7)"
               xlink:href="#DejaVuSans-Oblique-86"
               id="use287" />
            <use
               transform="translate(875.180664 0.015625)"
               xlink:href="#DejaVuSans-47"
               id="use289" />
            <use
               transform="translate(908.87207 0.015625)"
               xlink:href="#DejaVuSans-Oblique-107"
               id="use291" />
            <use
               transform="translate(966.782227 -16.390625)scale(0.7)"
               xlink:href="#DejaVuSans-Oblique-66"
               id="use293" />
          </g>
        </g>
      </g>
      <g
         id="line2d_15">
        <path
           clip-path="url(#pda82fb3dcf)"
           d="M 47.45 219.793482  L 48.89442 219.75033  L 49.255525 219.558515  L 49.61663 219.107252  L 50.33884 217.377146  L 51.06105 214.859361  L 52.50547 208.799912  L 56.11652 193.383821  L 59.00536 182.307315  L 63.33862 166.714394  L 66.94967 154.414071  L 69.83851 145.311232  L 72.366245 138.038387  L 74.89398 131.464202  L 77.06061 126.383321  L 79.22724 121.790648  L 81.39387 117.652834  L 83.5605 113.931449  L 86.088235 110.06309  L 88.61597 106.646003  L 91.143705 103.623123  L 93.67144 100.942846  L 96.199175 98.559213  L 99.088015 96.146393  L 101.976855 94.015014  L 105.2268 91.896378  L 108.83785 89.822645  L 112.810005 87.805061  L 117.50437 85.675647  L 124.00426 82.998164  L 141.3373 75.994175  L 148.198295 72.909487  L 155.05929 69.566937  L 162.28139 65.791633  L 171.67012 60.606989  L 189.364265 50.785093  L 196.22526 47.261466  L 202.364045 44.35939  L 207.78062 42.036879  L 212.83609 40.09426  L 217.89156 38.383293  L 222.94703 36.911714  L 228.0025 35.681532  L 233.05797 34.689655  L 238.11344 33.928644  L 243.16891 33.387514  L 248.585485 33.036103  L 254.00206 32.901986  L 259.77974 32.974828  L 265.918525 33.267583  L 272.77952 33.819413  L 280.362725 34.656114  L 289.029245 35.838475  L 299.862395 37.554521  L 315.028805 40.204858  L 352.583725 46.841458  L 368.83345 49.442912  L 384.360965 51.706869  L 399.88848 53.746971  L 408.555 54.790664  L 408.555 54.790664  "
           style="fill:none;stroke:#1f77b4;stroke-linecap:square;stroke-width:2;"
           id="path299" />
      </g>
      <g
         id="patch_3">
        <path
           d="M 47.45 244.3975  L 47.45 14.76  "
           style="fill:none;stroke:#000000;stroke-linecap:square;stroke-linejoin:miter;stroke-width:0.8;"
           id="path302" />
      </g>
      <g
         id="patch_4">
        <path
           d="M 408.555 244.3975  L 408.555 14.76  "
           style="fill:none;stroke:#000000;stroke-linecap:square;stroke-linejoin:miter;stroke-width:0.8;"
           id="path305" />
      </g>
      <g
         id="patch_5">
        <path
           d="M 47.45 244.3975  L 408.555 244.3975  "
           style="fill:none;stroke:#000000;stroke-linecap:square;stroke-linejoin:miter;stroke-width:0.8;"
           id="path308" />
      </g>
      <g
         id="patch_6">
        <path
           d="M 47.45 14.76  L 408.555 14.76  "
           style="fill:none;stroke:#000000;stroke-linecap:square;stroke-linejoin:miter;stroke-width:0.8;"
           id="path311" />
      </g>
    </g>
  </g>
  <defs
     id="defs319">
    <clipPath
       id="pda82fb3dcf">
      <rect
         height="229.6375"
         width="361.105"
         x="47.45"
         y="14.76"
         id="rect316" />
    </clipPath>
  </defs>
</svg>
